<svg width="170" height="291" viewBox="0 0 170 291" fill="none" xmlns="http://www.w3.org/2000/svg">
<g clip-path="url(#clip0)">
<path d="M159.126 19.5996H10.7884C4.83058 19.5996 0 24.4267 0 30.3806V140.888C0 146.841 4.83058 151.668 10.7884 151.668H159.126C165.084 151.668 169.914 146.841 169.914 140.887V30.3806C169.914 24.4267 165.084 19.5996 159.126 19.5996ZM159.126 30.3806V108.789L137.865 89.472C134.669 86.5692 129.755 86.6851 126.702 89.739L105.184 111.239L62.7577 60.5947C59.5507 56.7673 53.6765 56.7297 50.4214 60.5111L10.7884 106.541V30.3806H159.126ZM113.276 58.6812C113.276 50.4928 119.916 43.857 128.11 43.857C136.304 43.857 142.943 50.4928 142.943 58.6812C142.943 66.8695 136.304 73.505 128.11 73.505C119.916 73.5053 113.276 66.8695 113.276 58.6812Z" fill="white"/>
</g>
<path d="M39.5512 209V206.75H42.9412V190.25H39.5512V188H48.7012V190.25H45.3112V206.75H48.7012V209H39.5512ZM52.9705 209V193.31H55.2505L55.2805 196.01C55.8005 195.11 56.5405 194.39 57.5005 193.85C58.4605 193.29 59.5005 193.01 60.6205 193.01C61.7405 193.01 62.6905 193.27 63.4705 193.79C64.2705 194.31 64.8705 195.2 65.2705 196.46C65.5705 195.84 66.0105 195.27 66.5905 194.75C67.1705 194.23 67.8305 193.81 68.5705 193.49C69.3305 193.17 70.1305 193.01 70.9705 193.01C72.6305 193.01 73.8905 193.55 74.7505 194.63C75.6305 195.69 76.0705 197.33 76.0705 199.55V209H73.7605V199.67C73.7605 198.13 73.4705 197 72.8905 196.28C72.3105 195.54 71.4405 195.17 70.2805 195.17C69.3805 195.17 68.5805 195.37 67.8805 195.77C67.1805 196.17 66.6305 196.7 66.2305 197.36C65.8505 198.02 65.6605 198.74 65.6605 199.52V209H63.3505V199.64C63.3505 196.66 62.1905 195.17 59.8705 195.17C58.9905 195.17 58.2005 195.37 57.5005 195.77C56.8005 196.15 56.2505 196.67 55.8505 197.33C55.4705 197.99 55.2805 198.71 55.2805 199.49V209H52.9705ZM86.4545 209.3C85.0945 209.3 83.8645 208.95 82.7645 208.25C81.6645 207.53 80.7945 206.56 80.1545 205.34C79.5145 204.1 79.1945 202.7 79.1945 201.14C79.1945 199.56 79.5245 198.16 80.1845 196.94C80.8445 195.7 81.7345 194.73 82.8545 194.03C83.9745 193.33 85.2245 192.98 86.6045 192.98C87.8645 192.98 88.9845 193.27 89.9645 193.85C90.9645 194.43 91.7245 195.18 92.2445 196.1L92.3045 193.31H94.5845V209H92.2745V206.21C91.7145 207.09 90.9145 207.83 89.8745 208.43C88.8345 209.01 87.6945 209.3 86.4545 209.3ZM86.9645 207.11C88.0045 207.11 88.9345 206.86 89.7545 206.36C90.5745 205.84 91.2145 205.13 91.6745 204.23C92.1545 203.33 92.3945 202.29 92.3945 201.11C92.3945 199.97 92.1545 198.95 91.6745 198.05C91.2145 197.15 90.5745 196.45 89.7545 195.95C88.9345 195.43 88.0045 195.17 86.9645 195.17C85.9045 195.17 84.9645 195.43 84.1445 195.95C83.3445 196.45 82.7145 197.15 82.2545 198.05C81.7945 198.95 81.5645 199.97 81.5645 201.11C81.5645 202.27 81.7945 203.31 82.2545 204.23C82.7145 205.13 83.3445 205.84 84.1445 206.36C84.9645 206.86 85.9045 207.11 86.9645 207.11ZM105.688 215.9C104.528 215.9 103.428 215.72 102.388 215.36C101.368 215 100.508 214.55 99.808 214.01L100.738 212.09C101.338 212.57 102.068 212.97 102.928 213.29C103.808 213.61 104.748 213.77 105.748 213.77C107.448 213.77 108.778 213.29 109.738 212.33C110.698 211.39 111.178 209.99 111.178 208.13V206.06C110.698 206.96 109.928 207.73 108.868 208.37C107.828 208.99 106.688 209.3 105.448 209.3C103.988 209.3 102.678 208.95 101.518 208.25C100.378 207.55 99.478 206.59 98.818 205.37C98.158 204.13 97.828 202.72 97.828 201.14C97.828 199.58 98.158 198.19 98.818 196.97C99.498 195.73 100.408 194.76 101.548 194.06C102.708 193.34 103.998 192.98 105.418 192.98C106.618 192.98 107.728 193.27 108.748 193.85C109.788 194.43 110.578 195.13 111.118 195.95L111.178 193.31H113.458V208.04C113.458 210.54 112.748 212.47 111.328 213.83C109.908 215.21 108.028 215.9 105.688 215.9ZM105.718 207.11C106.778 207.11 107.718 206.86 108.538 206.36C109.378 205.84 110.038 205.13 110.518 204.23C110.998 203.33 111.238 202.3 111.238 201.14C111.238 199.98 110.998 198.95 110.518 198.05C110.038 197.15 109.378 196.44 108.538 195.92C107.718 195.4 106.778 195.14 105.718 195.14C104.638 195.14 103.678 195.4 102.838 195.92C102.018 196.44 101.368 197.15 100.888 198.05C100.428 198.95 100.198 199.98 100.198 201.14C100.198 202.28 100.428 203.31 100.888 204.23C101.368 205.13 102.018 205.84 102.838 206.36C103.678 206.86 104.638 207.11 105.718 207.11ZM124.765 209.3C123.185 209.3 121.785 208.96 120.565 208.28C119.365 207.6 118.425 206.65 117.745 205.43C117.065 204.21 116.725 202.81 116.725 201.23C116.725 199.63 117.055 198.21 117.715 196.97C118.375 195.73 119.295 194.76 120.475 194.06C121.655 193.34 123.005 192.98 124.525 192.98C125.925 192.98 127.155 193.31 128.215 193.97C129.295 194.61 130.125 195.5 130.705 196.64C131.285 197.76 131.555 199.06 131.515 200.54L131.485 201.59H119.065C119.165 203.29 119.745 204.64 120.805 205.64C121.865 206.64 123.275 207.14 125.035 207.14C125.795 207.14 126.535 207.02 127.255 206.78C127.995 206.52 128.805 206.02 129.685 205.28L130.855 206.93C130.155 207.61 129.265 208.18 128.185 208.64C127.105 209.08 125.965 209.3 124.765 209.3ZM124.495 195.14C123.055 195.14 121.865 195.53 120.925 196.31C119.985 197.07 119.395 198.19 119.155 199.67H129.205V199.49C129.165 198.77 128.955 198.08 128.575 197.42C128.195 196.74 127.655 196.19 126.955 195.77C126.275 195.35 125.455 195.14 124.495 195.14ZM18.4009 247V231.31H20.6509L20.7109 233.98C21.1909 233.14 21.9309 232.43 22.9309 231.85C23.9509 231.27 25.0209 230.98 26.1409 230.98C27.8809 230.98 29.1909 231.52 30.0709 232.6C30.9709 233.66 31.4209 235.28 31.4209 237.46V247H29.1109V237.61C29.1109 234.55 27.8809 233.05 25.4209 233.11C24.5009 233.11 23.6809 233.31 22.9609 233.71C22.2609 234.11 21.7009 234.64 21.2809 235.3C20.8809 235.96 20.6809 236.68 20.6809 237.46V247H18.4009ZM42.6454 247.3C41.1054 247.3 39.7254 246.95 38.5054 246.25C37.3054 245.53 36.3554 244.56 35.6554 243.34C34.9554 242.1 34.6054 240.69 34.6054 239.11C34.6054 237.55 34.9554 236.16 35.6554 234.94C36.3554 233.7 37.3054 232.73 38.5054 232.03C39.7254 231.33 41.1054 230.98 42.6454 230.98C44.1854 230.98 45.5554 231.33 46.7554 232.03C47.9754 232.73 48.9254 233.7 49.6054 234.94C50.3054 236.16 50.6554 237.55 50.6554 239.11C50.6554 240.69 50.3054 242.1 49.6054 243.34C48.9254 244.56 47.9754 245.53 46.7554 246.25C45.5554 246.95 44.1854 247.3 42.6454 247.3ZM42.6454 245.14C43.7454 245.14 44.7154 244.88 45.5554 244.36C46.4154 243.84 47.0854 243.13 47.5654 242.23C48.0454 241.31 48.2854 240.27 48.2854 239.11C48.2854 237.95 48.0454 236.93 47.5654 236.05C47.0854 235.15 46.4154 234.44 45.5554 233.92C44.7154 233.4 43.7454 233.14 42.6454 233.14C41.5454 233.14 40.5654 233.4 39.7054 233.92C38.8454 234.44 38.1754 235.15 37.6954 236.05C37.2154 236.95 36.9754 237.97 36.9754 239.11C36.9754 240.27 37.2154 241.31 37.6954 242.23C38.1754 243.13 38.8454 243.84 39.7054 244.36C40.5654 244.88 41.5454 245.14 42.6454 245.14ZM56.098 247V233.5H52.588V231.31H56.098V227.23H58.378V231.31H62.308V233.5H58.378V247H56.098ZM75.3084 247V233.56H72.5184V231.46H75.3084V228.91C75.3084 227.75 75.6884 226.79 76.4484 226.03C77.2084 225.27 78.2184 224.89 79.4784 224.89C80.1184 224.89 80.6984 225.01 81.2184 225.25C81.7384 225.47 82.1684 225.78 82.5084 226.18L81.6984 227.95C81.3784 227.63 81.0384 227.4 80.6784 227.26C80.3184 227.1 79.9684 227.02 79.6284 227.02C78.2884 227.02 77.6184 227.66 77.6184 228.94V231.46H81.6084V233.56H77.6184V247H75.3084ZM91.2196 247.3C89.6796 247.3 88.2996 246.95 87.0796 246.25C85.8796 245.53 84.9296 244.56 84.2296 243.34C83.5296 242.1 83.1796 240.69 83.1796 239.11C83.1796 237.55 83.5296 236.16 84.2296 234.94C84.9296 233.7 85.8796 232.73 87.0796 232.03C88.2996 231.33 89.6796 230.98 91.2196 230.98C92.7596 230.98 94.1296 231.33 95.3296 232.03C96.5496 232.73 97.4996 233.7 98.1796 234.94C98.8796 236.16 99.2296 237.55 99.2296 239.11C99.2296 240.69 98.8796 242.1 98.1796 243.34C97.4996 244.56 96.5496 245.53 95.3296 246.25C94.1296 246.95 92.7596 247.3 91.2196 247.3ZM91.2196 245.14C92.3196 245.14 93.2896 244.88 94.1296 244.36C94.9896 243.84 95.6596 243.13 96.1396 242.23C96.6196 241.31 96.8596 240.27 96.8596 239.11C96.8596 237.95 96.6196 236.93 96.1396 236.05C95.6596 235.15 94.9896 234.44 94.1296 233.92C93.2896 233.4 92.3196 233.14 91.2196 233.14C90.1196 233.14 89.1396 233.4 88.2796 233.92C87.4196 234.44 86.7496 235.15 86.2696 236.05C85.7896 236.95 85.5496 237.97 85.5496 239.11C85.5496 240.27 85.7896 241.31 86.2696 242.23C86.7496 243.13 87.4196 243.84 88.2796 244.36C89.1396 244.88 90.1196 245.14 91.2196 245.14ZM108.062 247.3C106.262 247.3 104.882 246.76 103.922 245.68C102.962 244.58 102.482 242.99 102.482 240.91V231.31H104.792V240.46C104.792 243.64 106.102 245.23 108.722 245.23C109.582 245.23 110.362 245.04 111.062 244.66C111.762 244.26 112.312 243.73 112.712 243.07C113.132 242.39 113.342 241.64 113.342 240.82V231.31H115.622V247H113.372L113.282 244.3C112.802 245.16 112.082 245.88 111.122 246.46C110.162 247.02 109.142 247.3 108.062 247.3ZM120.003 247V231.31H122.253L122.313 233.98C122.793 233.14 123.533 232.43 124.533 231.85C125.553 231.27 126.623 230.98 127.743 230.98C129.483 230.98 130.793 231.52 131.673 232.6C132.573 233.66 133.023 235.28 133.023 237.46V247H130.713V237.61C130.713 234.55 129.483 233.05 127.023 233.11C126.103 233.11 125.283 233.31 124.563 233.71C123.863 234.11 123.303 234.64 122.883 235.3C122.483 235.96 122.283 236.68 122.283 237.46V247H120.003ZM143.707 247.3C142.267 247.3 140.977 246.95 139.837 246.25C138.717 245.55 137.827 244.59 137.167 243.37C136.527 242.13 136.207 240.72 136.207 239.14C136.207 237.58 136.537 236.19 137.197 234.97C137.857 233.73 138.747 232.76 139.867 232.06C140.987 231.34 142.247 230.98 143.647 230.98C144.847 230.98 145.947 231.26 146.947 231.82C147.967 232.36 148.757 233.03 149.317 233.83V224.8H151.597V247H149.347L149.287 244.36C148.787 245.18 148.027 245.88 147.007 246.46C145.987 247.02 144.887 247.3 143.707 247.3ZM144.007 245.2C145.047 245.2 145.977 244.94 146.797 244.42C147.617 243.9 148.257 243.19 148.717 242.29C149.197 241.37 149.437 240.32 149.437 239.14C149.437 237.96 149.197 236.92 148.717 236.02C148.257 235.1 147.617 234.38 146.797 233.86C145.977 233.34 145.047 233.08 144.007 233.08C142.947 233.08 142.007 233.34 141.187 233.86C140.367 234.38 139.727 235.1 139.267 236.02C138.807 236.92 138.577 237.96 138.577 239.14C138.577 240.3 138.807 241.34 139.267 242.26C139.727 243.18 140.367 243.9 141.187 244.42C142.007 244.94 142.947 245.2 144.007 245.2ZM79.6233 285.27C78.5033 285.27 77.9433 284.65 77.9433 283.41C77.9433 282.87 78.0933 282.42 78.3933 282.06C78.7133 281.7 79.1233 281.52 79.6233 281.52C80.7633 281.52 81.3333 282.15 81.3333 283.41C81.3333 283.95 81.1733 284.4 80.8533 284.76C80.5533 285.1 80.1433 285.27 79.6233 285.27ZM79.6233 272.73C78.5033 272.73 77.9433 272.11 77.9433 270.87C77.9433 270.33 78.0933 269.88 78.3933 269.52C78.7133 269.16 79.1233 268.98 79.6233 268.98C80.7633 268.98 81.3333 269.61 81.3333 270.87C81.3333 271.41 81.1733 271.86 80.8533 272.22C80.5533 272.56 80.1433 272.73 79.6233 272.73ZM91.7447 290.58C89.3047 289.06 87.4447 287.16 86.1647 284.88C84.8847 282.6 84.2447 280.06 84.2447 277.26C84.2447 274.48 84.8847 271.95 86.1647 269.67C87.4647 267.37 89.3347 265.46 91.7747 263.94L93.0347 265.35C90.8747 266.85 89.2347 268.62 88.1147 270.66C87.0147 272.68 86.4647 274.88 86.4647 277.26C86.4647 279.62 87.0147 281.82 88.1147 283.86C89.2347 285.88 90.8747 287.64 93.0347 289.14L91.7447 290.58Z" fill="white"/>
<defs>
<clipPath id="clip0">
<rect width="169.914" height="169.803" fill="white" transform="translate(0 0.7323)"/>
</clipPath>
</defs>
</svg>
