<svg width="25" height="61" viewBox="0 0 25 61" fill="none" xmlns="http://www.w3.org/2000/svg">
<path d="M23.9336 61H1.06636C0.763718 61 0.518096 60.7544 0.518096 60.4517V57.9462C0.517822 57.9185 0.519466 57.8913 0.52303 57.8645C0.536188 57.7672 0.574841 57.6778 0.632135 57.6038C0.668046 57.5572 0.711906 57.5158 0.762347 57.4823C0.762347 57.4823 0.76262 57.4821 0.762895 57.4821C0.795516 57.4604 0.83033 57.442 0.867338 57.4278L4.1147 56.0793C4.12155 56.0766 4.12868 56.0736 4.13581 56.0711V48.186H3.88333C3.58069 48.186 3.33507 47.9404 3.33507 47.6377C3.33507 47.3351 3.58069 47.0895 3.88333 47.0895H4.68846V44.9312C4.68846 44.6286 4.93408 44.383 5.23672 44.383H9.14227C9.31388 44.1903 9.51646 43.9323 9.59185 43.7525C9.69821 43.4748 9.71466 41.9607 9.6209 41.0079C9.5828 40.6197 9.4101 40.0621 9.24315 39.5229C9.07867 38.9919 8.90899 38.4431 8.83744 37.9708C8.70942 37.1256 8.64363 35.6297 8.87993 34.1954C9.07511 33.0109 8.99424 32.1112 8.81249 31.1251C8.753 30.8019 8.67186 30.4692 8.58606 30.1166C8.39581 29.3356 8.18034 28.4502 8.07371 27.2204C7.95364 25.8361 8.07508 24.2806 8.1924 22.7768C8.22859 22.314 8.2645 21.8513 8.29383 21.394C8.36895 20.2199 8.13648 20.1706 8.01175 20.144C7.93637 20.1281 7.84234 20.1081 7.74639 20.0648C7.40373 19.9104 6.91906 19.5097 6.55639 18.4762C6.19207 17.4375 5.98921 15.8722 5.93548 15.4171C5.85105 14.6995 5.71453 14.0736 5.59391 13.5215C5.56157 13.3724 5.53004 13.2288 5.50126 13.0898C5.33267 12.2805 5.39626 11.5703 5.73509 10.4691C6.04596 9.45862 6.82997 9.0499 7.82233 8.53206C8.15348 8.35936 8.52931 8.16335 8.93338 7.92239L8.99205 7.88758C9.64091 7.5005 10.0326 7.26694 10.1609 7.11891C10.2037 7.06984 10.2128 7.02324 10.2125 6.64329V6.59806C10.2125 6.33106 10.1294 5.91575 10.0332 5.43465C9.84624 4.50068 9.61378 3.33809 9.74618 2.14617C9.94219 0.382956 11.6245 -0.0271447 12.5004 0.00109084C13.3792 -0.0252258 15.0588 0.38323 15.2546 2.14617C15.387 3.33809 15.1545 4.50041 14.9678 5.43465C14.8716 5.91548 14.7886 6.33079 14.7886 6.59779V6.64302C14.7883 7.02297 14.7976 7.06957 14.8401 7.11864C14.9684 7.26667 15.3601 7.50023 16.009 7.8873L16.0677 7.92212C16.4717 8.16308 16.8473 8.35908 17.1787 8.53179C18.1713 9.04962 18.9551 9.45835 19.2659 10.4688C19.6048 11.57 19.6681 12.2803 19.4995 13.0892C19.4704 13.2288 19.4389 13.3729 19.4063 13.5226C19.2862 14.0742 19.1497 14.6995 19.0653 15.4166C19.0118 15.8714 18.809 17.4361 18.4444 18.4754C18.0817 19.5091 17.5973 19.9099 17.2546 20.0642C17.1581 20.1075 17.0644 20.1275 16.989 20.1434C16.864 20.17 16.6318 20.2194 16.7067 21.3935C16.7357 21.8505 16.7719 22.3126 16.8081 22.7751C16.9254 24.2795 17.0469 25.8355 16.9268 27.2201C16.8201 28.4504 16.6044 29.3356 16.4142 30.1169C16.3284 30.4692 16.2475 30.8019 16.1877 31.1249C16.006 32.1109 15.9251 33.0103 16.1206 34.1951C16.3569 35.6294 16.2913 37.1253 16.1631 37.9705C16.0915 38.4428 15.9215 38.9913 15.7573 39.5221C15.5904 40.0616 15.4177 40.6191 15.3796 41.0073C15.2858 41.9602 15.3023 43.4742 15.4092 43.753C15.4857 43.9356 15.6943 44.1974 15.8588 44.3821H19.7638C20.0664 44.3821 20.312 44.6278 20.312 44.9304V47.0886H21.1172C21.4198 47.0886 21.6654 47.3343 21.6654 47.6369C21.6654 47.9395 21.4198 48.1852 21.1172 48.1852H20.8644V56.0703C20.8715 56.073 20.8787 56.0758 20.8855 56.0785L24.1329 57.427C24.1699 57.4412 24.2047 57.4596 24.2373 57.4812C24.2886 57.5152 24.333 57.5569 24.3692 57.6046C24.4256 57.6781 24.4638 57.7658 24.4772 57.8617C24.481 57.8894 24.4829 57.9174 24.4824 57.9456V60.4512C24.4818 60.7546 24.2362 61 23.9336 61ZM1.61462 59.9035H23.385V58.487H1.61462V59.9035ZM3.81644 57.3905H21.1838L20.5656 57.1336H4.43461L3.81644 57.3905ZM5.23261 56.0371H19.7673L19.7632 48.1857H5.23261V56.0371ZM5.78498 47.0892H19.2152V45.4792H5.78498V47.0892ZM10.5009 44.3827H14.4993C14.4604 44.3139 14.4259 44.2445 14.3971 44.1763C14.1337 43.5482 14.2263 41.5262 14.288 40.9004C14.3371 40.4018 14.5265 39.7899 14.7096 39.1983C14.862 38.7063 15.0194 38.1975 15.0786 37.8066C15.2039 36.9798 15.2401 35.5979 15.0386 34.3739C14.8173 33.0323 14.907 32.0257 15.1093 30.9267C15.1745 30.573 15.259 30.2257 15.3486 29.8578C15.5295 29.1149 15.7349 28.2728 15.8341 27.1261C15.9462 25.8311 15.8283 24.3212 15.7146 22.8609C15.6781 22.3932 15.6417 21.9258 15.612 21.4639C15.5172 19.9781 15.861 19.2627 16.7607 19.0713C16.7834 19.0664 16.8048 19.0628 16.8237 19.0571C16.8369 19.0499 17.134 18.8972 17.4093 18.113C17.6302 17.4835 17.8421 16.4279 17.9759 15.2891C18.0666 14.5188 18.2089 13.8658 18.3344 13.2896C18.3662 13.1435 18.3972 13.0026 18.4255 12.8664C18.5354 12.3386 18.5368 11.8299 18.2174 10.7923C18.0483 10.2429 17.6212 10.0006 16.671 9.50495C16.3267 9.3254 15.9363 9.12172 15.5057 8.86486L15.447 8.82977C13.925 7.92212 13.6909 7.78259 13.6918 6.64329V6.59861C13.6918 6.22305 13.7847 5.7584 13.8921 5.22055C14.064 4.36088 14.2781 3.29067 14.1644 2.26816C14.0292 1.05047 12.5848 1.09679 12.5223 1.09844C12.5072 1.09899 12.4924 1.09899 12.4774 1.09844C12.323 1.09131 10.9669 1.08473 10.8353 2.26816C10.7215 3.29067 10.9356 4.3606 11.1078 5.22055C11.2155 5.7584 11.3082 6.22333 11.3082 6.59889V6.64357C11.3087 7.78259 11.0749 7.92239 9.55292 8.83004L9.49426 8.86513C9.06332 9.12227 8.67296 9.32567 8.32892 9.50523C7.37878 10.0009 6.95169 10.2429 6.78255 10.7925C6.46318 11.8301 6.46428 12.3389 6.57421 12.8669C6.60244 13.0026 6.63314 13.143 6.66494 13.2885C6.79077 13.865 6.93332 14.5185 7.02406 15.2897C7.15811 16.4287 7.36974 17.4844 7.59041 18.1135C7.86564 18.8978 8.1628 19.0505 8.19569 19.0656C8.1946 19.0631 8.21653 19.0675 8.23901 19.0721C9.13898 19.2635 9.48247 19.979 9.38762 21.4648C9.35801 21.9272 9.32155 22.3949 9.28509 22.8628C9.17133 24.3226 9.05373 25.8322 9.16585 27.1267C9.26508 28.2734 9.47013 29.1152 9.65106 29.8581C9.7407 30.2263 9.82541 30.5736 9.89065 30.9275C10.0932 32.0268 10.1826 33.0337 9.96138 34.3747C9.75989 35.5987 9.7958 36.9809 9.92135 37.8074C9.98056 38.1983 10.1382 38.7074 10.2903 39.1997C10.4735 39.7913 10.6629 40.4029 10.7119 40.9015C10.7736 41.5276 10.8663 43.5493 10.6028 44.1774C10.5743 44.2445 10.5395 44.3139 10.5009 44.3827Z" fill="#DFCA4E"/>
</svg>
